<svg width="25" height="24" viewBox="0 0 25 24" fill="none" xmlns="http://www.w3.org/2000/svg">
<g id="mdi:instagram">
<path id="Vector" d="M8.03242 2H16.4324C19.6324 2 22.2324 4.6 22.2324 7.8V16.2C22.2324 17.7383 21.6214 19.2135 20.5336 20.3012C19.4459 21.3889 17.9707 22 16.4324 22H8.03242C4.83242 22 2.23242 19.4 2.23242 16.2V7.8C2.23242 6.26174 2.84349 4.78649 3.9312 3.69878C5.01891 2.61107 6.49417 2 8.03242 2ZM7.83242 4C6.87764 4 5.96197 4.37928 5.28684 5.05442C4.61171 5.72955 4.23242 6.64522 4.23242 7.6V16.4C4.23242 18.39 5.84242 20 7.83242 20H16.6324C17.5872 20 18.5029 19.6207 19.178 18.9456C19.8531 18.2705 20.2324 17.3548 20.2324 16.4V7.6C20.2324 5.61 18.6224 4 16.6324 4H7.83242ZM17.4824 5.5C17.8139 5.5 18.1319 5.6317 18.3663 5.86612C18.6007 6.10054 18.7324 6.41848 18.7324 6.75C18.7324 7.08152 18.6007 7.39946 18.3663 7.63388C18.1319 7.8683 17.8139 8 17.4824 8C17.1509 8 16.833 7.8683 16.5985 7.63388C16.3641 7.39946 16.2324 7.08152 16.2324 6.75C16.2324 6.41848 16.3641 6.10054 16.5985 5.86612C16.833 5.6317 17.1509 5.5 17.4824 5.5ZM12.2324 7C13.5585 7 14.8303 7.52678 15.768 8.46447C16.7056 9.40215 17.2324 10.6739 17.2324 12C17.2324 13.3261 16.7056 14.5979 15.768 15.5355C14.8303 16.4732 13.5585 17 12.2324 17C10.9063 17 9.63457 16.4732 8.69689 15.5355C7.75921 14.5979 7.23242 13.3261 7.23242 12C7.23242 10.6739 7.75921 9.40215 8.69689 8.46447C9.63457 7.52678 10.9063 7 12.2324 7ZM12.2324 9C11.4368 9 10.6737 9.31607 10.1111 9.87868C9.54849 10.4413 9.23242 11.2044 9.23242 12C9.23242 12.7956 9.54849 13.5587 10.1111 14.1213C10.6737 14.6839 11.4368 15 12.2324 15C13.0281 15 13.7911 14.6839 14.3537 14.1213C14.9164 13.5587 15.2324 12.7956 15.2324 12C15.2324 11.2044 14.9164 10.4413 14.3537 9.87868C13.7911 9.31607 13.0281 9 12.2324 9Z" fill="white"/>
</g>
</svg>
