<svg width="25" height="24" viewBox="0 0 25 24" fill="none" xmlns="http://www.w3.org/2000/svg">
<g id="mdi:linkedin">
<path id="Vector" d="M19.2324 3C19.7629 3 20.2716 3.21071 20.6466 3.58579C21.0217 3.96086 21.2324 4.46957 21.2324 5V19C21.2324 19.5304 21.0217 20.0391 20.6466 20.4142C20.2716 20.7893 19.7629 21 19.2324 21H5.23242C4.70199 21 4.19328 20.7893 3.81821 20.4142C3.44314 20.0391 3.23242 19.5304 3.23242 19V5C3.23242 4.46957 3.44314 3.96086 3.81821 3.58579C4.19328 3.21071 4.70199 3 5.23242 3H19.2324ZM18.7324 18.5V13.2C18.7324 12.3354 18.389 11.5062 17.7776 10.8948C17.1662 10.2835 16.337 9.94 15.4724 9.94C14.6224 9.94 13.6324 10.46 13.1524 11.24V10.13H10.3624V18.5H13.1524V13.57C13.1524 12.8 13.7724 12.17 14.5424 12.17C14.9137 12.17 15.2698 12.3175 15.5324 12.5801C15.7949 12.8426 15.9424 13.1987 15.9424 13.57V18.5H18.7324ZM7.11242 8.56C7.55799 8.56 7.9853 8.383 8.30036 8.06794C8.61542 7.75288 8.79242 7.32556 8.79242 6.88C8.79242 5.95 8.04242 5.19 7.11242 5.19C6.66421 5.19 6.23435 5.36805 5.91741 5.68499C5.60047 6.00193 5.42242 6.43178 5.42242 6.88C5.42242 7.81 6.18242 8.56 7.11242 8.56ZM8.50242 18.5V10.13H5.73242V18.5H8.50242Z" fill="white"/>
</g>
</svg>
